
<svg width="762" height="118" viewBox="-10 -10 762 118" xmlns="http://www.w3.org/2000/svg">
<rect x="-10" y="-10" width="742" height="98" fill="#0d1117" />
<g transform="translate(0,0)">
<rect x="0" y="0" width="10" height="10" fill="#161b22" rx="2"></rect><rect x="0" y="14" width="10" height="10" fill="#161b22" rx="2"></rect><rect x="0" y="28" width="10" height="10" fill="#161b22" rx="2"></rect><rect x="0" y="42" width="10" height="10" fill="#161b22" rx="2"></rect><rect x="0" y="56" width="10" height="10" fill="#161b22" rx="2"></rect><rect x="0" y="70" width="10" height="10" fill="#161b22" rx="2"></rect><rect x="0" y="84" width="10" height="10" fill="#161b22" rx="2"></rect><rect x="14" y="0" width="10" height="10" fill="#161b22" rx="2"></rect><rect x="14" y="14" width="10" height="10" fill="#161b22" rx="2"></rect><rect x="14" y="28" width="10" height="10" fill="#161b22" rx="2"></rect><rect x="14" y="42" width="10" height="10" fill="#161b22" rx="2"></rect><rect x="14" y="56" width="10" height="10" fill="#161b22" rx="2"></rect><rect x="14" y="70" width="10" height="10" fill="#161b22" rx="2"></rect><rect x="14" y="84" width="10" height="10" fill="#161b22" rx="2"></rect><rect x="28" y="0" width="10" height="10" fill="#161b22" rx="2"></rect><rect x="28" y="14" width="10" height="10" fill="#161b22" rx="2"></rect><rect x="28" y="28" width="10" height="10" fill="#161b22" rx="2"></rect><rect x="28" y="42" width="10" height="10" fill="#161b22" rx="2"></rect><rect x="28" y="56" width="10" height="10" fill="#39d353" rx="2"><animate attributeName="opacity" values="1;1;0.2;0.2;1" keyTimes="0;0.625;0.635;0.950;1" dur="52.40s" repeatCount="indefinite" /><animate attributeName="fill" values="#39d353;#39d353;#1b2028;#1b2028;#39d353" keyTimes="0;0.625;0.635;0.950;1" dur="52.40s" repeatCount="indefinite" /></rect><rect x="28" y="70" width="10" height="10" fill="#39d353" rx="2"><animate attributeName="opacity" values="1;1;0.2;0.2;1" keyTimes="0;0.631;0.641;0.950;1" dur="52.40s" repeatCount="indefinite" /><animate attributeName="fill" values="#39d353;#39d353;#1b2028;#1b2028;#39d353" keyTimes="0;0.631;0.641;0.950;1" dur="52.40s" repeatCount="indefinite" /></rect><rect x="28" y="84" width="10" height="10" fill="#161b22" rx="2"></rect><rect x="42" y="0" width="10" height="10" fill="#39d353" rx="2"><animate attributeName="opacity" values="1;1;0.2;0.2;1" keyTimes="0;0.663;0.673;0.950;1" dur="52.40s" repeatCount="indefinite" /><animate attributeName="fill" values="#39d353;#39d353;#1b2028;#1b2028;#39d353" keyTimes="0;0.663;0.673;0.950;1" dur="52.40s" repeatCount="indefinite" /></rect><rect x="42" y="14" width="10" height="10" fill="#161b22" rx="2"></rect><rect x="42" y="28" width="10" height="10" fill="#161b22" rx="2"></rect><rect x="42" y="42" width="10" height="10" fill="#161b22" rx="2"></rect><rect x="42" y="56" width="10" height="10" fill="#161b22" rx="2"></rect><rect x="42" y="70" width="10" height="10" fill="#161b22" rx="2"></rect><rect x="42" y="84" width="10" height="10" fill="#161b22" rx="2"></rect><rect x="56" y="0" width="10" height="10" fill="#161b22" rx="2"></rect><rect x="56" y="14" width="10" height="10" fill="#161b22" rx="2"></rect><rect x="56" y="28" width="10" height="10" fill="#161b22" rx="2"></rect><rect x="56" y="42" width="10" height="10" fill="#161b22" rx="2"></rect><rect x="56" y="56" width="10" height="10" fill="#26a641" rx="2"><animate attributeName="opacity" values="1;1;0.2;0.2;1" keyTimes="0;0.615;0.625;0.950;1" dur="52.40s" repeatCount="indefinite" /><animate attributeName="fill" values="#26a641;#26a641;#1b2028;#1b2028;#26a641" keyTimes="0;0.615;0.625;0.950;1" dur="52.40s" repeatCount="indefinite" /></rect><rect x="56" y="70" width="10" height="10" fill="#161b22" rx="2"></rect><rect x="56" y="84" width="10" height="10" fill="#161b22" rx="2"></rect><rect x="70" y="0" width="10" height="10" fill="#161b22" rx="2"></rect><rect x="70" y="14" width="10" height="10" fill="#161b22" rx="2"></rect><rect x="70" y="28" width="10" height="10" fill="#161b22" rx="2"></rect><rect x="70" y="42" width="10" height="10" fill="#161b22" rx="2"></rect><rect x="70" y="56" width="10" height="10" fill="#161b22" rx="2"></rect><rect x="70" y="70" width="10" height="10" fill="#161b22" rx="2"></rect><rect x="70" y="84" width="10" height="10" fill="#161b22" rx="2"></rect><rect x="84" y="0" width="10" height="10" fill="#161b22" rx="2"></rect><rect x="84" y="14" width="10" height="10" fill="#161b22" rx="2"></rect><rect x="84" y="28" width="10" height="10" fill="#161b22" rx="2"></rect><rect x="84" y="42" width="10" height="10" fill="#161b22" rx="2"></rect><rect x="84" y="56" width="10" height="10" fill="#161b22" rx="2"></rect><rect x="84" y="70" width="10" height="10" fill="#161b22" rx="2"></rect><rect x="84" y="84" width="10" height="10" fill="#161b22" rx="2"></rect><rect x="98" y="0" width="10" height="10" fill="#161b22" rx="2"></rect><rect x="98" y="14" width="10" height="10" fill="#161b22" rx="2"></rect><rect x="98" y="28" width="10" height="10" fill="#161b22" rx="2"></rect><rect x="98" y="42" width="10" height="10" fill="#161b22" rx="2"></rect><rect x="98" y="56" width="10" height="10" fill="#161b22" rx="2"></rect><rect x="98" y="70" width="10" height="10" fill="#161b22" rx="2"></rect><rect x="98" y="84" width="10" height="10" fill="#161b22" rx="2"></rect><rect x="112" y="0" width="10" height="10" fill="#161b22" rx="2"></rect><rect x="112" y="14" width="10" height="10" fill="#161b22" rx="2"></rect><rect x="112" y="28" width="10" height="10" fill="#161b22" rx="2"></rect><rect x="112" y="42" width="10" height="10" fill="#161b22" rx="2"></rect><rect x="112" y="56" width="10" height="10" fill="#161b22" rx="2"></rect><rect x="112" y="70" width="10" height="10" fill="#161b22" rx="2"></rect><rect x="112" y="84" width="10" height="10" fill="#161b22" rx="2"></rect><rect x="126" y="0" width="10" height="10" fill="#161b22" rx="2"></rect><rect x="126" y="14" width="10" height="10" fill="#161b22" rx="2"></rect><rect x="126" y="28" width="10" height="10" fill="#161b22" rx="2"></rect><rect x="126" y="42" width="10" height="10" fill="#161b22" rx="2"></rect><rect x="126" y="56" width="10" height="10" fill="#161b22" rx="2"></rect><rect x="126" y="70" width="10" height="10" fill="#161b22" rx="2"></rect><rect x="126" y="84" width="10" height="10" fill="#161b22" rx="2"></rect><rect x="140" y="0" width="10" height="10" fill="#161b22" rx="2"></rect><rect x="140" y="14" width="10" height="10" fill="#0e4429" rx="2"><animate attributeName="opacity" values="1;1;0.2;0.2;1" keyTimes="0;0.064;0.074;0.950;1" dur="52.40s" repeatCount="indefinite" /><animate attributeName="fill" values="#0e4429;#0e4429;#1b2028;#1b2028;#0e4429" keyTimes="0;0.064;0.074;0.950;1" dur="52.40s" repeatCount="indefinite" /></rect><rect x="140" y="28" width="10" height="10" fill="#161b22" rx="2"></rect><rect x="140" y="42" width="10" height="10" fill="#161b22" rx="2"></rect><rect x="140" y="56" width="10" height="10" fill="#161b22" rx="2"></rect><rect x="140" y="70" width="10" height="10" fill="#161b22" rx="2"></rect><rect x="140" y="84" width="10" height="10" fill="#161b22" rx="2"></rect><rect x="154" y="0" width="10" height="10" fill="#161b22" rx="2"></rect><rect x="154" y="14" width="10" height="10" fill="#161b22" rx="2"></rect><rect x="154" y="28" width="10" height="10" fill="#161b22" rx="2"></rect><rect x="154" y="42" width="10" height="10" fill="#161b22" rx="2"></rect><rect x="154" y="56" width="10" height="10" fill="#161b22" rx="2"></rect><rect x="154" y="70" width="10" height="10" fill="#161b22" rx="2"></rect><rect x="154" y="84" width="10" height="10" fill="#161b22" rx="2"></rect><rect x="168" y="0" width="10" height="10" fill="#0e4429" rx="2"><animate attributeName="opacity" values="1;1;0.2;0.2;1" keyTimes="0;0.080;0.090;0.950;1" dur="52.40s" repeatCount="indefinite" /><animate attributeName="fill" values="#0e4429;#0e4429;#1b2028;#1b2028;#0e4429" keyTimes="0;0.080;0.090;0.950;1" dur="52.40s" repeatCount="indefinite" /></rect><rect x="168" y="14" width="10" height="10" fill="#161b22" rx="2"></rect><rect x="168" y="28" width="10" height="10" fill="#161b22" rx="2"></rect><rect x="168" y="42" width="10" height="10" fill="#161b22" rx="2"></rect><rect x="168" y="56" width="10" height="10" fill="#161b22" rx="2"></rect><rect x="168" y="70" width="10" height="10" fill="#161b22" rx="2"></rect><rect x="168" y="84" width="10" height="10" fill="#161b22" rx="2"></rect><rect x="182" y="0" width="10" height="10" fill="#161b22" rx="2"></rect><rect x="182" y="14" width="10" height="10" fill="#161b22" rx="2"></rect><rect x="182" y="28" width="10" height="10" fill="#161b22" rx="2"></rect><rect x="182" y="42" width="10" height="10" fill="#161b22" rx="2"></rect><rect x="182" y="56" width="10" height="10" fill="#161b22" rx="2"></rect><rect x="182" y="70" width="10" height="10" fill="#161b22" rx="2"></rect><rect x="182" y="84" width="10" height="10" fill="#161b22" rx="2"></rect><rect x="196" y="0" width="10" height="10" fill="#161b22" rx="2"></rect><rect x="196" y="14" width="10" height="10" fill="#161b22" rx="2"></rect><rect x="196" y="28" width="10" height="10" fill="#161b22" rx="2"></rect><rect x="196" y="42" width="10" height="10" fill="#161b22" rx="2"></rect><rect x="196" y="56" width="10" height="10" fill="#161b22" rx="2"></rect><rect x="196" y="70" width="10" height="10" fill="#161b22" rx="2"></rect><rect x="196" y="84" width="10" height="10" fill="#161b22" rx="2"></rect><rect x="210" y="0" width="10" height="10" fill="#39d353" rx="2"><animate attributeName="opacity" values="1;1;0.2;0.2;1" keyTimes="0;0.727;0.737;0.950;1" dur="52.40s" repeatCount="indefinite" /><animate attributeName="fill" values="#39d353;#39d353;#1b2028;#1b2028;#39d353" keyTimes="0;0.727;0.737;0.950;1" dur="52.40s" repeatCount="indefinite" /></rect><rect x="210" y="14" width="10" height="10" fill="#161b22" rx="2"></rect><rect x="210" y="28" width="10" height="10" fill="#161b22" rx="2"></rect><rect x="210" y="42" width="10" height="10" fill="#161b22" rx="2"></rect><rect x="210" y="56" width="10" height="10" fill="#161b22" rx="2"></rect><rect x="210" y="70" width="10" height="10" fill="#161b22" rx="2"></rect><rect x="210" y="84" width="10" height="10" fill="#161b22" rx="2"></rect><rect x="224" y="0" width="10" height="10" fill="#161b22" rx="2"></rect><rect x="224" y="14" width="10" height="10" fill="#161b22" rx="2"></rect><rect x="224" y="28" width="10" height="10" fill="#161b22" rx="2"></rect><rect x="224" y="42" width="10" height="10" fill="#161b22" rx="2"></rect><rect x="224" y="56" width="10" height="10" fill="#161b22" rx="2"></rect><rect x="224" y="70" width="10" height="10" fill="#161b22" rx="2"></rect><rect x="224" y="84" width="10" height="10" fill="#161b22" rx="2"></rect><rect x="238" y="0" width="10" height="10" fill="#161b22" rx="2"></rect><rect x="238" y="14" width="10" height="10" fill="#161b22" rx="2"></rect><rect x="238" y="28" width="10" height="10" fill="#161b22" rx="2"></rect><rect x="238" y="42" width="10" height="10" fill="#161b22" rx="2"></rect><rect x="238" y="56" width="10" height="10" fill="#0e4429" rx="2"><animate attributeName="opacity" values="1;1;0.2;0.2;1" keyTimes="0;0.128;0.138;0.950;1" dur="52.40s" repeatCount="indefinite" /><animate attributeName="fill" values="#0e4429;#0e4429;#1b2028;#1b2028;#0e4429" keyTimes="0;0.128;0.138;0.950;1" dur="52.40s" repeatCount="indefinite" /></rect><rect x="238" y="70" width="10" height="10" fill="#161b22" rx="2"></rect><rect x="238" y="84" width="10" height="10" fill="#161b22" rx="2"></rect><rect x="252" y="0" width="10" height="10" fill="#161b22" rx="2"></rect><rect x="252" y="14" width="10" height="10" fill="#161b22" rx="2"></rect><rect x="252" y="28" width="10" height="10" fill="#161b22" rx="2"></rect><rect x="252" y="42" width="10" height="10" fill="#161b22" rx="2"></rect><rect x="252" y="56" width="10" height="10" fill="#161b22" rx="2"></rect><rect x="252" y="70" width="10" height="10" fill="#161b22" rx="2"></rect><rect x="252" y="84" width="10" height="10" fill="#161b22" rx="2"></rect><rect x="266" y="0" width="10" height="10" fill="#161b22" rx="2"></rect><rect x="266" y="14" width="10" height="10" fill="#161b22" rx="2"></rect><rect x="266" y="28" width="10" height="10" fill="#161b22" rx="2"></rect><rect x="266" y="42" width="10" height="10" fill="#161b22" rx="2"></rect><rect x="266" y="56" width="10" height="10" fill="#161b22" rx="2"></rect><rect x="266" y="70" width="10" height="10" fill="#161b22" rx="2"></rect><rect x="266" y="84" width="10" height="10" fill="#161b22" rx="2"></rect><rect x="280" y="0" width="10" height="10" fill="#161b22" rx="2"></rect><rect x="280" y="14" width="10" height="10" fill="#161b22" rx="2"></rect><rect x="280" y="28" width="10" height="10" fill="#161b22" rx="2"></rect><rect x="280" y="42" width="10" height="10" fill="#161b22" rx="2"></rect><rect x="280" y="56" width="10" height="10" fill="#161b22" rx="2"></rect><rect x="280" y="70" width="10" height="10" fill="#161b22" rx="2"></rect><rect x="280" y="84" width="10" height="10" fill="#161b22" rx="2"></rect><rect x="294" y="0" width="10" height="10" fill="#161b22" rx="2"></rect><rect x="294" y="14" width="10" height="10" fill="#161b22" rx="2"></rect><rect x="294" y="28" width="10" height="10" fill="#161b22" rx="2"></rect><rect x="294" y="42" width="10" height="10" fill="#161b22" rx="2"></rect><rect x="294" y="56" width="10" height="10" fill="#161b22" rx="2"></rect><rect x="294" y="70" width="10" height="10" fill="#161b22" rx="2"></rect><rect x="294" y="84" width="10" height="10" fill="#161b22" rx="2"></rect><rect x="308" y="0" width="10" height="10" fill="#161b22" rx="2"></rect><rect x="308" y="14" width="10" height="10" fill="#161b22" rx="2"></rect><rect x="308" y="28" width="10" height="10" fill="#161b22" rx="2"></rect><rect x="308" y="42" width="10" height="10" fill="#161b22" rx="2"></rect><rect x="308" y="56" width="10" height="10" fill="#161b22" rx="2"></rect><rect x="308" y="70" width="10" height="10" fill="#161b22" rx="2"></rect><rect x="308" y="84" width="10" height="10" fill="#161b22" rx="2"></rect><rect x="322" y="0" width="10" height="10" fill="#161b22" rx="2"></rect><rect x="322" y="14" width="10" height="10" fill="#161b22" rx="2"></rect><rect x="322" y="28" width="10" height="10" fill="#161b22" rx="2"></rect><rect x="322" y="42" width="10" height="10" fill="#161b22" rx="2"></rect><rect x="322" y="56" width="10" height="10" fill="#161b22" rx="2"></rect><rect x="322" y="70" width="10" height="10" fill="#161b22" rx="2"></rect><rect x="322" y="84" width="10" height="10" fill="#161b22" rx="2"></rect><rect x="336" y="0" width="10" height="10" fill="#161b22" rx="2"></rect><rect x="336" y="14" width="10" height="10" fill="#161b22" rx="2"></rect><rect x="336" y="28" width="10" height="10" fill="#161b22" rx="2"></rect><rect x="336" y="42" width="10" height="10" fill="#161b22" rx="2"></rect><rect x="336" y="56" width="10" height="10" fill="#161b22" rx="2"></rect><rect x="336" y="70" width="10" height="10" fill="#161b22" rx="2"></rect><rect x="336" y="84" width="10" height="10" fill="#161b22" rx="2"></rect><rect x="350" y="0" width="10" height="10" fill="#161b22" rx="2"></rect><rect x="350" y="14" width="10" height="10" fill="#161b22" rx="2"></rect><rect x="350" y="28" width="10" height="10" fill="#161b22" rx="2"></rect><rect x="350" y="42" width="10" height="10" fill="#161b22" rx="2"></rect><rect x="350" y="56" width="10" height="10" fill="#161b22" rx="2"></rect><rect x="350" y="70" width="10" height="10" fill="#161b22" rx="2"></rect><rect x="350" y="84" width="10" height="10" fill="#161b22" rx="2"></rect><rect x="364" y="0" width="10" height="10" fill="#161b22" rx="2"></rect><rect x="364" y="14" width="10" height="10" fill="#161b22" rx="2"></rect><rect x="364" y="28" width="10" height="10" fill="#161b22" rx="2"></rect><rect x="364" y="42" width="10" height="10" fill="#161b22" rx="2"></rect><rect x="364" y="56" width="10" height="10" fill="#161b22" rx="2"></rect><rect x="364" y="70" width="10" height="10" fill="#161b22" rx="2"></rect><rect x="364" y="84" width="10" height="10" fill="#161b22" rx="2"></rect><rect x="378" y="0" width="10" height="10" fill="#161b22" rx="2"></rect><rect x="378" y="14" width="10" height="10" fill="#161b22" rx="2"></rect><rect x="378" y="28" width="10" height="10" fill="#161b22" rx="2"></rect><rect x="378" y="42" width="10" height="10" fill="#161b22" rx="2"></rect><rect x="378" y="56" width="10" height="10" fill="#161b22" rx="2"></rect><rect x="378" y="70" width="10" height="10" fill="#161b22" rx="2"></rect><rect x="378" y="84" width="10" height="10" fill="#161b22" rx="2"></rect><rect x="392" y="0" width="10" height="10" fill="#161b22" rx="2"></rect><rect x="392" y="14" width="10" height="10" fill="#161b22" rx="2"></rect><rect x="392" y="28" width="10" height="10" fill="#161b22" rx="2"></rect><rect x="392" y="42" width="10" height="10" fill="#161b22" rx="2"></rect><rect x="392" y="56" width="10" height="10" fill="#161b22" rx="2"></rect><rect x="392" y="70" width="10" height="10" fill="#161b22" rx="2"></rect><rect x="392" y="84" width="10" height="10" fill="#161b22" rx="2"></rect><rect x="406" y="0" width="10" height="10" fill="#161b22" rx="2"></rect><rect x="406" y="14" width="10" height="10" fill="#161b22" rx="2"></rect><rect x="406" y="28" width="10" height="10" fill="#161b22" rx="2"></rect><rect x="406" y="42" width="10" height="10" fill="#161b22" rx="2"></rect><rect x="406" y="56" width="10" height="10" fill="#161b22" rx="2"></rect><rect x="406" y="70" width="10" height="10" fill="#161b22" rx="2"></rect><rect x="406" y="84" width="10" height="10" fill="#161b22" rx="2"></rect><rect x="420" y="0" width="10" height="10" fill="#161b22" rx="2"></rect><rect x="420" y="14" width="10" height="10" fill="#161b22" rx="2"></rect><rect x="420" y="28" width="10" height="10" fill="#161b22" rx="2"></rect><rect x="420" y="42" width="10" height="10" fill="#161b22" rx="2"></rect><rect x="420" y="56" width="10" height="10" fill="#161b22" rx="2"></rect><rect x="420" y="70" width="10" height="10" fill="#161b22" rx="2"></rect><rect x="420" y="84" width="10" height="10" fill="#161b22" rx="2"></rect><rect x="434" y="0" width="10" height="10" fill="#161b22" rx="2"></rect><rect x="434" y="14" width="10" height="10" fill="#161b22" rx="2"></rect><rect x="434" y="28" width="10" height="10" fill="#161b22" rx="2"></rect><rect x="434" y="42" width="10" height="10" fill="#161b22" rx="2"></rect><rect x="434" y="56" width="10" height="10" fill="#161b22" rx="2"></rect><rect x="434" y="70" width="10" height="10" fill="#161b22" rx="2"></rect><rect x="434" y="84" width="10" height="10" fill="#161b22" rx="2"></rect><rect x="448" y="0" width="10" height="10" fill="#161b22" rx="2"></rect><rect x="448" y="14" width="10" height="10" fill="#161b22" rx="2"></rect><rect x="448" y="28" width="10" height="10" fill="#161b22" rx="2"></rect><rect x="448" y="42" width="10" height="10" fill="#161b22" rx="2"></rect><rect x="448" y="56" width="10" height="10" fill="#161b22" rx="2"></rect><rect x="448" y="70" width="10" height="10" fill="#161b22" rx="2"></rect><rect x="448" y="84" width="10" height="10" fill="#161b22" rx="2"></rect><rect x="462" y="0" width="10" height="10" fill="#161b22" rx="2"></rect><rect x="462" y="14" width="10" height="10" fill="#161b22" rx="2"></rect><rect x="462" y="28" width="10" height="10" fill="#161b22" rx="2"></rect><rect x="462" y="42" width="10" height="10" fill="#161b22" rx="2"></rect><rect x="462" y="56" width="10" height="10" fill="#161b22" rx="2"></rect><rect x="462" y="70" width="10" height="10" fill="#161b22" rx="2"></rect><rect x="462" y="84" width="10" height="10" fill="#161b22" rx="2"></rect><rect x="476" y="0" width="10" height="10" fill="#161b22" rx="2"></rect><rect x="476" y="14" width="10" height="10" fill="#161b22" rx="2"></rect><rect x="476" y="28" width="10" height="10" fill="#161b22" rx="2"></rect><rect x="476" y="42" width="10" height="10" fill="#161b22" rx="2"></rect><rect x="476" y="56" width="10" height="10" fill="#161b22" rx="2"></rect><rect x="476" y="70" width="10" height="10" fill="#161b22" rx="2"></rect><rect x="476" y="84" width="10" height="10" fill="#161b22" rx="2"></rect><rect x="490" y="0" width="10" height="10" fill="#161b22" rx="2"></rect><rect x="490" y="14" width="10" height="10" fill="#161b22" rx="2"></rect><rect x="490" y="28" width="10" height="10" fill="#161b22" rx="2"></rect><rect x="490" y="42" width="10" height="10" fill="#161b22" rx="2"></rect><rect x="490" y="56" width="10" height="10" fill="#161b22" rx="2"></rect><rect x="490" y="70" width="10" height="10" fill="#161b22" rx="2"></rect><rect x="490" y="84" width="10" height="10" fill="#161b22" rx="2"></rect><rect x="504" y="0" width="10" height="10" fill="#161b22" rx="2"></rect><rect x="504" y="14" width="10" height="10" fill="#161b22" rx="2"></rect><rect x="504" y="28" width="10" height="10" fill="#161b22" rx="2"></rect><rect x="504" y="42" width="10" height="10" fill="#161b22" rx="2"></rect><rect x="504" y="56" width="10" height="10" fill="#161b22" rx="2"></rect><rect x="504" y="70" width="10" height="10" fill="#161b22" rx="2"></rect><rect x="504" y="84" width="10" height="10" fill="#161b22" rx="2"></rect><rect x="518" y="0" width="10" height="10" fill="#161b22" rx="2"></rect><rect x="518" y="14" width="10" height="10" fill="#161b22" rx="2"></rect><rect x="518" y="28" width="10" height="10" fill="#161b22" rx="2"></rect><rect x="518" y="42" width="10" height="10" fill="#161b22" rx="2"></rect><rect x="518" y="56" width="10" height="10" fill="#161b22" rx="2"></rect><rect x="518" y="70" width="10" height="10" fill="#161b22" rx="2"></rect><rect x="518" y="84" width="10" height="10" fill="#161b22" rx="2"></rect><rect x="532" y="0" width="10" height="10" fill="#161b22" rx="2"></rect><rect x="532" y="14" width="10" height="10" fill="#161b22" rx="2"></rect><rect x="532" y="28" width="10" height="10" fill="#161b22" rx="2"></rect><rect x="532" y="42" width="10" height="10" fill="#161b22" rx="2"></rect><rect x="532" y="56" width="10" height="10" fill="#161b22" rx="2"></rect><rect x="532" y="70" width="10" height="10" fill="#161b22" rx="2"></rect><rect x="532" y="84" width="10" height="10" fill="#161b22" rx="2"></rect><rect x="546" y="0" width="10" height="10" fill="#161b22" rx="2"></rect><rect x="546" y="14" width="10" height="10" fill="#161b22" rx="2"></rect><rect x="546" y="28" width="10" height="10" fill="#161b22" rx="2"></rect><rect x="546" y="42" width="10" height="10" fill="#161b22" rx="2"></rect><rect x="546" y="56" width="10" height="10" fill="#161b22" rx="2"></rect><rect x="546" y="70" width="10" height="10" fill="#161b22" rx="2"></rect><rect x="546" y="84" width="10" height="10" fill="#161b22" rx="2"></rect><rect x="560" y="0" width="10" height="10" fill="#161b22" rx="2"></rect><rect x="560" y="14" width="10" height="10" fill="#161b22" rx="2"></rect><rect x="560" y="28" width="10" height="10" fill="#161b22" rx="2"></rect><rect x="560" y="42" width="10" height="10" fill="#161b22" rx="2"></rect><rect x="560" y="56" width="10" height="10" fill="#161b22" rx="2"></rect><rect x="560" y="70" width="10" height="10" fill="#161b22" rx="2"></rect><rect x="560" y="84" width="10" height="10" fill="#161b22" rx="2"></rect><rect x="574" y="0" width="10" height="10" fill="#161b22" rx="2"></rect><rect x="574" y="14" width="10" height="10" fill="#161b22" rx="2"></rect><rect x="574" y="28" width="10" height="10" fill="#161b22" rx="2"></rect><rect x="574" y="42" width="10" height="10" fill="#161b22" rx="2"></rect><rect x="574" y="56" width="10" height="10" fill="#161b22" rx="2"></rect><rect x="574" y="70" width="10" height="10" fill="#161b22" rx="2"></rect><rect x="574" y="84" width="10" height="10" fill="#161b22" rx="2"></rect><rect x="588" y="0" width="10" height="10" fill="#161b22" rx="2"></rect><rect x="588" y="14" width="10" height="10" fill="#161b22" rx="2"></rect><rect x="588" y="28" width="10" height="10" fill="#161b22" rx="2"></rect><rect x="588" y="42" width="10" height="10" fill="#161b22" rx="2"></rect><rect x="588" y="56" width="10" height="10" fill="#161b22" rx="2"></rect><rect x="588" y="70" width="10" height="10" fill="#161b22" rx="2"></rect><rect x="588" y="84" width="10" height="10" fill="#161b22" rx="2"></rect><rect x="602" y="0" width="10" height="10" fill="#161b22" rx="2"></rect><rect x="602" y="14" width="10" height="10" fill="#161b22" rx="2"></rect><rect x="602" y="28" width="10" height="10" fill="#161b22" rx="2"></rect><rect x="602" y="42" width="10" height="10" fill="#161b22" rx="2"></rect><rect x="602" y="56" width="10" height="10" fill="#161b22" rx="2"></rect><rect x="602" y="70" width="10" height="10" fill="#161b22" rx="2"></rect><rect x="602" y="84" width="10" height="10" fill="#161b22" rx="2"></rect><rect x="616" y="0" width="10" height="10" fill="#161b22" rx="2"></rect><rect x="616" y="14" width="10" height="10" fill="#161b22" rx="2"></rect><rect x="616" y="28" width="10" height="10" fill="#161b22" rx="2"></rect><rect x="616" y="42" width="10" height="10" fill="#161b22" rx="2"></rect><rect x="616" y="56" width="10" height="10" fill="#161b22" rx="2"></rect><rect x="616" y="70" width="10" height="10" fill="#161b22" rx="2"></rect><rect x="616" y="84" width="10" height="10" fill="#161b22" rx="2"></rect><rect x="630" y="0" width="10" height="10" fill="#161b22" rx="2"></rect><rect x="630" y="14" width="10" height="10" fill="#161b22" rx="2"></rect><rect x="630" y="28" width="10" height="10" fill="#161b22" rx="2"></rect><rect x="630" y="42" width="10" height="10" fill="#161b22" rx="2"></rect><rect x="630" y="56" width="10" height="10" fill="#161b22" rx="2"></rect><rect x="630" y="70" width="10" height="10" fill="#161b22" rx="2"></rect><rect x="630" y="84" width="10" height="10" fill="#161b22" rx="2"></rect><rect x="644" y="0" width="10" height="10" fill="#161b22" rx="2"></rect><rect x="644" y="14" width="10" height="10" fill="#161b22" rx="2"></rect><rect x="644" y="28" width="10" height="10" fill="#161b22" rx="2"></rect><rect x="644" y="42" width="10" height="10" fill="#161b22" rx="2"></rect><rect x="644" y="56" width="10" height="10" fill="#161b22" rx="2"></rect><rect x="644" y="70" width="10" height="10" fill="#161b22" rx="2"></rect><rect x="644" y="84" width="10" height="10" fill="#161b22" rx="2"></rect><rect x="658" y="0" width="10" height="10" fill="#161b22" rx="2"></rect><rect x="658" y="14" width="10" height="10" fill="#0e4429" rx="2"><animate attributeName="opacity" values="1;1;0.2;0.2;1" keyTimes="0;0.305;0.315;0.950;1" dur="52.40s" repeatCount="indefinite" /><animate attributeName="fill" values="#0e4429;#0e4429;#1b2028;#1b2028;#0e4429" keyTimes="0;0.305;0.315;0.950;1" dur="52.40s" repeatCount="indefinite" /></rect><rect x="658" y="28" width="10" height="10" fill="#161b22" rx="2"></rect><rect x="658" y="42" width="10" height="10" fill="#161b22" rx="2"></rect><rect x="658" y="56" width="10" height="10" fill="#161b22" rx="2"></rect><rect x="658" y="70" width="10" height="10" fill="#161b22" rx="2"></rect><rect x="658" y="84" width="10" height="10" fill="#161b22" rx="2"></rect><rect x="672" y="0" width="10" height="10" fill="#161b22" rx="2"></rect><rect x="672" y="14" width="10" height="10" fill="#161b22" rx="2"></rect><rect x="672" y="28" width="10" height="10" fill="#161b22" rx="2"></rect><rect x="672" y="42" width="10" height="10" fill="#161b22" rx="2"></rect><rect x="672" y="56" width="10" height="10" fill="#161b22" rx="2"></rect><rect x="672" y="70" width="10" height="10" fill="#161b22" rx="2"></rect><rect x="672" y="84" width="10" height="10" fill="#161b22" rx="2"></rect><rect x="686" y="0" width="10" height="10" fill="#161b22" rx="2"></rect><rect x="686" y="14" width="10" height="10" fill="#161b22" rx="2"></rect><rect x="686" y="28" width="10" height="10" fill="#161b22" rx="2"></rect><rect x="686" y="42" width="10" height="10" fill="#161b22" rx="2"></rect><rect x="686" y="56" width="10" height="10" fill="#161b22" rx="2"></rect><rect x="686" y="70" width="10" height="10" fill="#161b22" rx="2"></rect><rect x="686" y="84" width="10" height="10" fill="#161b22" rx="2"></rect><rect x="700" y="0" width="10" height="10" fill="#161b22" rx="2"></rect><rect x="700" y="14" width="10" height="10" fill="#161b22" rx="2"></rect><rect x="700" y="28" width="10" height="10" fill="#161b22" rx="2"></rect><rect x="700" y="42" width="10" height="10" fill="#161b22" rx="2"></rect><rect x="700" y="56" width="10" height="10" fill="#161b22" rx="2"></rect><rect x="700" y="70" width="10" height="10" fill="#161b22" rx="2"></rect><rect x="700" y="84" width="10" height="10" fill="#161b22" rx="2"></rect><rect x="714" y="0" width="10" height="10" fill="#161b22" rx="2"></rect><rect x="714" y="14" width="10" height="10" fill="#161b22" rx="2"></rect><rect x="714" y="28" width="10" height="10" fill="#161b22" rx="2"></rect><rect x="714" y="42" width="10" height="10" fill="#161b22" rx="2"></rect><rect x="714" y="56" width="10" height="10" fill="#161b22" rx="2"></rect><rect x="714" y="70" width="10" height="10" fill="#161b22" rx="2"></rect><rect x="714" y="84" width="10" height="10" fill="#161b22" rx="2"></rect><rect x="728" y="0" width="10" height="10" fill="#161b22" rx="2"></rect><rect x="728" y="14" width="10" height="10" fill="#161b22" rx="2"></rect><rect x="728" y="28" width="10" height="10" fill="#161b22" rx="2"></rect><rect x="728" y="42" width="10" height="10" fill="#0e4429" rx="2"><animate attributeName="opacity" values="1;1;0.2;0.2;1" keyTimes="0;0.342;0.352;0.950;1" dur="52.40s" repeatCount="indefinite" /><animate attributeName="fill" values="#0e4429;#0e4429;#1b2028;#1b2028;#0e4429" keyTimes="0;0.342;0.352;0.950;1" dur="52.40s" repeatCount="indefinite" /></rect><rect x="728" y="56" width="10" height="10" fill="#006d32" rx="2"><animate attributeName="opacity" values="1;1;0.2;0.2;1" keyTimes="0;0.347;0.357;0.950;1" dur="52.40s" repeatCount="indefinite" /><animate attributeName="fill" values="#006d32;#006d32;#1b2028;#1b2028;#006d32" keyTimes="0;0.347;0.357;0.950;1" dur="52.40s" repeatCount="indefinite" /></rect><rect x="728" y="70" width="10" height="10" fill="#26a641" rx="2"><animate attributeName="opacity" values="1;1;0.2;0.2;1" keyTimes="0;0.353;0.363;0.950;1" dur="52.40s" repeatCount="indefinite" /><animate attributeName="fill" values="#26a641;#26a641;#1b2028;#1b2028;#26a641" keyTimes="0;0.353;0.363;0.950;1" dur="52.40s" repeatCount="indefinite" /></rect><rect x="728" y="84" width="10" height="10" fill="#39d353" rx="2"><animate attributeName="opacity" values="1;1;0.2;0.2;1" keyTimes="0;0.956;0.966;0.967;1" dur="52.40s" repeatCount="indefinite" /><animate attributeName="fill" values="#39d353;#39d353;#1b2028;#1b2028;#39d353" keyTimes="0;0.956;0.966;0.967;1" dur="52.40s" repeatCount="indefinite" /></rect></g>
<g>
    <animateMotion dur="52.40s" repeatCount="indefinite" path="M 0 42 L 140 42 L 140 14 L 168 14 L 168 0 L 238 0 L 238 56 L 658 56 L 658 14 L 728 14 L 728 42 L 728 56 L 728 70 L 56 70 L 56 56 L 28 56 L 28 70 L 42 70 L 42 0 L 210 0 L 728 0 L 728 84 L 792 84" rotate="auto">
    </animateMotion>
    
    <g transform="rotate(0)"> <!-- Adjust initial rotation if needed -->
        <circle cx="0" cy="0" r="4" fill="#FFD700" />
        <path d="M0,0 L5,-3 L5,3 Z" fill="#0d1117">
            <animateTransform attributeName="transform" type="rotate" from="0 0 0" to="30 0 0" dur="0.2s" repeatCount="indefinite" values="0 0 0; 30 0 0; 0 0 0" keyTimes="0; 0.5; 1" />
        </path>
    </g>
</g>
</svg>