
<svg width="762" height="118" viewBox="-10 -10 762 118" xmlns="http://www.w3.org/2000/svg">
<style>
    .cell { opacity: 1; }
    @keyframes eat {
        to { opacity: 0.2; fill: #1b2028; }
    }
</style>
<rect x="-10" y="-10" width="762" height="118" fill="#0d1117" />
<g transform="translate(0,0)">
<rect x="0" y="0" width="10" height="10" fill="#161b22" rx="2"  /><rect x="0" y="14" width="10" height="10" fill="#161b22" rx="2"  /><rect x="0" y="28" width="10" height="10" fill="#161b22" rx="2"  /><rect x="0" y="42" width="10" height="10" fill="#161b22" rx="2"  /><rect x="0" y="56" width="10" height="10" fill="#161b22" rx="2"  /><rect x="0" y="70" width="10" height="10" fill="#161b22" rx="2"  /><rect x="0" y="84" width="10" height="10" fill="#161b22" rx="2"  /><rect x="14" y="0" width="10" height="10" fill="#161b22" rx="2"  /><rect x="14" y="14" width="10" height="10" fill="#161b22" rx="2"  /><rect x="14" y="28" width="10" height="10" fill="#161b22" rx="2"  /><rect x="14" y="42" width="10" height="10" fill="#161b22" rx="2"  /><rect x="14" y="56" width="10" height="10" fill="#161b22" rx="2"  /><rect x="14" y="70" width="10" height="10" fill="#161b22" rx="2"  /><rect x="14" y="84" width="10" height="10" fill="#161b22" rx="2"  /><rect x="28" y="0" width="10" height="10" fill="#161b22" rx="2"  /><rect x="28" y="14" width="10" height="10" fill="#161b22" rx="2"  /><rect x="28" y="28" width="10" height="10" fill="#161b22" rx="2"  /><rect x="28" y="42" width="10" height="10" fill="#161b22" rx="2"  /><rect x="28" y="56" width="10" height="10" fill="#39d353" rx="2" style="animation: eat 0.1s forwards; animation-delay: 10.92s;" /><rect x="28" y="70" width="10" height="10" fill="#39d353" rx="2" style="animation: eat 0.1s forwards; animation-delay: 11.013333333333334s;" /><rect x="28" y="84" width="10" height="10" fill="#161b22" rx="2"  /><rect x="42" y="0" width="10" height="10" fill="#39d353" rx="2" style="animation: eat 0.1s forwards; animation-delay: 11.573333333333334s;" /><rect x="42" y="14" width="10" height="10" fill="#161b22" rx="2"  /><rect x="42" y="28" width="10" height="10" fill="#161b22" rx="2"  /><rect x="42" y="42" width="10" height="10" fill="#161b22" rx="2"  /><rect x="42" y="56" width="10" height="10" fill="#161b22" rx="2"  /><rect x="42" y="70" width="10" height="10" fill="#161b22" rx="2"  /><rect x="42" y="84" width="10" height="10" fill="#161b22" rx="2"  /><rect x="56" y="0" width="10" height="10" fill="#161b22" rx="2"  /><rect x="56" y="14" width="10" height="10" fill="#161b22" rx="2"  /><rect x="56" y="28" width="10" height="10" fill="#161b22" rx="2"  /><rect x="56" y="42" width="10" height="10" fill="#161b22" rx="2"  /><rect x="56" y="56" width="10" height="10" fill="#26a641" rx="2" style="animation: eat 0.1s forwards; animation-delay: 10.733333333333334s;" /><rect x="56" y="70" width="10" height="10" fill="#161b22" rx="2"  /><rect x="56" y="84" width="10" height="10" fill="#161b22" rx="2"  /><rect x="70" y="0" width="10" height="10" fill="#161b22" rx="2"  /><rect x="70" y="14" width="10" height="10" fill="#161b22" rx="2"  /><rect x="70" y="28" width="10" height="10" fill="#161b22" rx="2"  /><rect x="70" y="42" width="10" height="10" fill="#161b22" rx="2"  /><rect x="70" y="56" width="10" height="10" fill="#161b22" rx="2"  /><rect x="70" y="70" width="10" height="10" fill="#161b22" rx="2"  /><rect x="70" y="84" width="10" height="10" fill="#161b22" rx="2"  /><rect x="84" y="0" width="10" height="10" fill="#161b22" rx="2"  /><rect x="84" y="14" width="10" height="10" fill="#161b22" rx="2"  /><rect x="84" y="28" width="10" height="10" fill="#161b22" rx="2"  /><rect x="84" y="42" width="10" height="10" fill="#161b22" rx="2"  /><rect x="84" y="56" width="10" height="10" fill="#161b22" rx="2"  /><rect x="84" y="70" width="10" height="10" fill="#161b22" rx="2"  /><rect x="84" y="84" width="10" height="10" fill="#161b22" rx="2"  /><rect x="98" y="0" width="10" height="10" fill="#161b22" rx="2"  /><rect x="98" y="14" width="10" height="10" fill="#161b22" rx="2"  /><rect x="98" y="28" width="10" height="10" fill="#161b22" rx="2"  /><rect x="98" y="42" width="10" height="10" fill="#161b22" rx="2"  /><rect x="98" y="56" width="10" height="10" fill="#161b22" rx="2"  /><rect x="98" y="70" width="10" height="10" fill="#161b22" rx="2"  /><rect x="98" y="84" width="10" height="10" fill="#161b22" rx="2"  /><rect x="112" y="0" width="10" height="10" fill="#161b22" rx="2"  /><rect x="112" y="14" width="10" height="10" fill="#161b22" rx="2"  /><rect x="112" y="28" width="10" height="10" fill="#161b22" rx="2"  /><rect x="112" y="42" width="10" height="10" fill="#161b22" rx="2"  /><rect x="112" y="56" width="10" height="10" fill="#161b22" rx="2"  /><rect x="112" y="70" width="10" height="10" fill="#161b22" rx="2"  /><rect x="112" y="84" width="10" height="10" fill="#161b22" rx="2"  /><rect x="126" y="0" width="10" height="10" fill="#161b22" rx="2"  /><rect x="126" y="14" width="10" height="10" fill="#161b22" rx="2"  /><rect x="126" y="28" width="10" height="10" fill="#161b22" rx="2"  /><rect x="126" y="42" width="10" height="10" fill="#161b22" rx="2"  /><rect x="126" y="56" width="10" height="10" fill="#161b22" rx="2"  /><rect x="126" y="70" width="10" height="10" fill="#161b22" rx="2"  /><rect x="126" y="84" width="10" height="10" fill="#161b22" rx="2"  /><rect x="140" y="0" width="10" height="10" fill="#161b22" rx="2"  /><rect x="140" y="14" width="10" height="10" fill="#0e4429" rx="2" style="animation: eat 0.1s forwards; animation-delay: 1.12s;" /><rect x="140" y="28" width="10" height="10" fill="#161b22" rx="2"  /><rect x="140" y="42" width="10" height="10" fill="#161b22" rx="2"  /><rect x="140" y="56" width="10" height="10" fill="#161b22" rx="2"  /><rect x="140" y="70" width="10" height="10" fill="#161b22" rx="2"  /><rect x="140" y="84" width="10" height="10" fill="#161b22" rx="2"  /><rect x="154" y="0" width="10" height="10" fill="#161b22" rx="2"  /><rect x="154" y="14" width="10" height="10" fill="#161b22" rx="2"  /><rect x="154" y="28" width="10" height="10" fill="#161b22" rx="2"  /><rect x="154" y="42" width="10" height="10" fill="#161b22" rx="2"  /><rect x="154" y="56" width="10" height="10" fill="#161b22" rx="2"  /><rect x="154" y="70" width="10" height="10" fill="#161b22" rx="2"  /><rect x="154" y="84" width="10" height="10" fill="#161b22" rx="2"  /><rect x="168" y="0" width="10" height="10" fill="#0e4429" rx="2" style="animation: eat 0.1s forwards; animation-delay: 1.4s;" /><rect x="168" y="14" width="10" height="10" fill="#161b22" rx="2"  /><rect x="168" y="28" width="10" height="10" fill="#161b22" rx="2"  /><rect x="168" y="42" width="10" height="10" fill="#161b22" rx="2"  /><rect x="168" y="56" width="10" height="10" fill="#161b22" rx="2"  /><rect x="168" y="70" width="10" height="10" fill="#161b22" rx="2"  /><rect x="168" y="84" width="10" height="10" fill="#161b22" rx="2"  /><rect x="182" y="0" width="10" height="10" fill="#161b22" rx="2"  /><rect x="182" y="14" width="10" height="10" fill="#161b22" rx="2"  /><rect x="182" y="28" width="10" height="10" fill="#161b22" rx="2"  /><rect x="182" y="42" width="10" height="10" fill="#161b22" rx="2"  /><rect x="182" y="56" width="10" height="10" fill="#161b22" rx="2"  /><rect x="182" y="70" width="10" height="10" fill="#161b22" rx="2"  /><rect x="182" y="84" width="10" height="10" fill="#161b22" rx="2"  /><rect x="196" y="0" width="10" height="10" fill="#161b22" rx="2"  /><rect x="196" y="14" width="10" height="10" fill="#161b22" rx="2"  /><rect x="196" y="28" width="10" height="10" fill="#161b22" rx="2"  /><rect x="196" y="42" width="10" height="10" fill="#161b22" rx="2"  /><rect x="196" y="56" width="10" height="10" fill="#161b22" rx="2"  /><rect x="196" y="70" width="10" height="10" fill="#161b22" rx="2"  /><rect x="196" y="84" width="10" height="10" fill="#161b22" rx="2"  /><rect x="210" y="0" width="10" height="10" fill="#39d353" rx="2" style="animation: eat 0.1s forwards; animation-delay: 12.693333333333333s;" /><rect x="210" y="14" width="10" height="10" fill="#161b22" rx="2"  /><rect x="210" y="28" width="10" height="10" fill="#161b22" rx="2"  /><rect x="210" y="42" width="10" height="10" fill="#161b22" rx="2"  /><rect x="210" y="56" width="10" height="10" fill="#161b22" rx="2"  /><rect x="210" y="70" width="10" height="10" fill="#161b22" rx="2"  /><rect x="210" y="84" width="10" height="10" fill="#161b22" rx="2"  /><rect x="224" y="0" width="10" height="10" fill="#161b22" rx="2"  /><rect x="224" y="14" width="10" height="10" fill="#161b22" rx="2"  /><rect x="224" y="28" width="10" height="10" fill="#161b22" rx="2"  /><rect x="224" y="42" width="10" height="10" fill="#161b22" rx="2"  /><rect x="224" y="56" width="10" height="10" fill="#161b22" rx="2"  /><rect x="224" y="70" width="10" height="10" fill="#161b22" rx="2"  /><rect x="224" y="84" width="10" height="10" fill="#161b22" rx="2"  /><rect x="238" y="0" width="10" height="10" fill="#161b22" rx="2"  /><rect x="238" y="14" width="10" height="10" fill="#161b22" rx="2"  /><rect x="238" y="28" width="10" height="10" fill="#161b22" rx="2"  /><rect x="238" y="42" width="10" height="10" fill="#161b22" rx="2"  /><rect x="238" y="56" width="10" height="10" fill="#161b22" rx="2"  /><rect x="238" y="70" width="10" height="10" fill="#0e4429" rx="2" style="animation: eat 0.1s forwards; animation-delay: 2.333333333333333s;" /><rect x="238" y="84" width="10" height="10" fill="#161b22" rx="2"  /><rect x="252" y="0" width="10" height="10" fill="#161b22" rx="2"  /><rect x="252" y="14" width="10" height="10" fill="#161b22" rx="2"  /><rect x="252" y="28" width="10" height="10" fill="#161b22" rx="2"  /><rect x="252" y="42" width="10" height="10" fill="#161b22" rx="2"  /><rect x="252" y="56" width="10" height="10" fill="#161b22" rx="2"  /><rect x="252" y="70" width="10" height="10" fill="#161b22" rx="2"  /><rect x="252" y="84" width="10" height="10" fill="#161b22" rx="2"  /><rect x="266" y="0" width="10" height="10" fill="#161b22" rx="2"  /><rect x="266" y="14" width="10" height="10" fill="#161b22" rx="2"  /><rect x="266" y="28" width="10" height="10" fill="#161b22" rx="2"  /><rect x="266" y="42" width="10" height="10" fill="#161b22" rx="2"  /><rect x="266" y="56" width="10" height="10" fill="#161b22" rx="2"  /><rect x="266" y="70" width="10" height="10" fill="#161b22" rx="2"  /><rect x="266" y="84" width="10" height="10" fill="#161b22" rx="2"  /><rect x="280" y="0" width="10" height="10" fill="#161b22" rx="2"  /><rect x="280" y="14" width="10" height="10" fill="#161b22" rx="2"  /><rect x="280" y="28" width="10" height="10" fill="#161b22" rx="2"  /><rect x="280" y="42" width="10" height="10" fill="#161b22" rx="2"  /><rect x="280" y="56" width="10" height="10" fill="#161b22" rx="2"  /><rect x="280" y="70" width="10" height="10" fill="#161b22" rx="2"  /><rect x="280" y="84" width="10" height="10" fill="#161b22" rx="2"  /><rect x="294" y="0" width="10" height="10" fill="#161b22" rx="2"  /><rect x="294" y="14" width="10" height="10" fill="#161b22" rx="2"  /><rect x="294" y="28" width="10" height="10" fill="#161b22" rx="2"  /><rect x="294" y="42" width="10" height="10" fill="#161b22" rx="2"  /><rect x="294" y="56" width="10" height="10" fill="#161b22" rx="2"  /><rect x="294" y="70" width="10" height="10" fill="#161b22" rx="2"  /><rect x="294" y="84" width="10" height="10" fill="#161b22" rx="2"  /><rect x="308" y="0" width="10" height="10" fill="#161b22" rx="2"  /><rect x="308" y="14" width="10" height="10" fill="#161b22" rx="2"  /><rect x="308" y="28" width="10" height="10" fill="#161b22" rx="2"  /><rect x="308" y="42" width="10" height="10" fill="#161b22" rx="2"  /><rect x="308" y="56" width="10" height="10" fill="#161b22" rx="2"  /><rect x="308" y="70" width="10" height="10" fill="#161b22" rx="2"  /><rect x="308" y="84" width="10" height="10" fill="#161b22" rx="2"  /><rect x="322" y="0" width="10" height="10" fill="#161b22" rx="2"  /><rect x="322" y="14" width="10" height="10" fill="#161b22" rx="2"  /><rect x="322" y="28" width="10" height="10" fill="#161b22" rx="2"  /><rect x="322" y="42" width="10" height="10" fill="#161b22" rx="2"  /><rect x="322" y="56" width="10" height="10" fill="#161b22" rx="2"  /><rect x="322" y="70" width="10" height="10" fill="#161b22" rx="2"  /><rect x="322" y="84" width="10" height="10" fill="#161b22" rx="2"  /><rect x="336" y="0" width="10" height="10" fill="#161b22" rx="2"  /><rect x="336" y="14" width="10" height="10" fill="#161b22" rx="2"  /><rect x="336" y="28" width="10" height="10" fill="#161b22" rx="2"  /><rect x="336" y="42" width="10" height="10" fill="#161b22" rx="2"  /><rect x="336" y="56" width="10" height="10" fill="#161b22" rx="2"  /><rect x="336" y="70" width="10" height="10" fill="#161b22" rx="2"  /><rect x="336" y="84" width="10" height="10" fill="#161b22" rx="2"  /><rect x="350" y="0" width="10" height="10" fill="#161b22" rx="2"  /><rect x="350" y="14" width="10" height="10" fill="#161b22" rx="2"  /><rect x="350" y="28" width="10" height="10" fill="#161b22" rx="2"  /><rect x="350" y="42" width="10" height="10" fill="#161b22" rx="2"  /><rect x="350" y="56" width="10" height="10" fill="#161b22" rx="2"  /><rect x="350" y="70" width="10" height="10" fill="#161b22" rx="2"  /><rect x="350" y="84" width="10" height="10" fill="#161b22" rx="2"  /><rect x="364" y="0" width="10" height="10" fill="#161b22" rx="2"  /><rect x="364" y="14" width="10" height="10" fill="#161b22" rx="2"  /><rect x="364" y="28" width="10" height="10" fill="#161b22" rx="2"  /><rect x="364" y="42" width="10" height="10" fill="#161b22" rx="2"  /><rect x="364" y="56" width="10" height="10" fill="#161b22" rx="2"  /><rect x="364" y="70" width="10" height="10" fill="#161b22" rx="2"  /><rect x="364" y="84" width="10" height="10" fill="#161b22" rx="2"  /><rect x="378" y="0" width="10" height="10" fill="#161b22" rx="2"  /><rect x="378" y="14" width="10" height="10" fill="#161b22" rx="2"  /><rect x="378" y="28" width="10" height="10" fill="#161b22" rx="2"  /><rect x="378" y="42" width="10" height="10" fill="#161b22" rx="2"  /><rect x="378" y="56" width="10" height="10" fill="#161b22" rx="2"  /><rect x="378" y="70" width="10" height="10" fill="#161b22" rx="2"  /><rect x="378" y="84" width="10" height="10" fill="#161b22" rx="2"  /><rect x="392" y="0" width="10" height="10" fill="#161b22" rx="2"  /><rect x="392" y="14" width="10" height="10" fill="#161b22" rx="2"  /><rect x="392" y="28" width="10" height="10" fill="#161b22" rx="2"  /><rect x="392" y="42" width="10" height="10" fill="#161b22" rx="2"  /><rect x="392" y="56" width="10" height="10" fill="#161b22" rx="2"  /><rect x="392" y="70" width="10" height="10" fill="#161b22" rx="2"  /><rect x="392" y="84" width="10" height="10" fill="#161b22" rx="2"  /><rect x="406" y="0" width="10" height="10" fill="#161b22" rx="2"  /><rect x="406" y="14" width="10" height="10" fill="#161b22" rx="2"  /><rect x="406" y="28" width="10" height="10" fill="#161b22" rx="2"  /><rect x="406" y="42" width="10" height="10" fill="#161b22" rx="2"  /><rect x="406" y="56" width="10" height="10" fill="#161b22" rx="2"  /><rect x="406" y="70" width="10" height="10" fill="#161b22" rx="2"  /><rect x="406" y="84" width="10" height="10" fill="#161b22" rx="2"  /><rect x="420" y="0" width="10" height="10" fill="#161b22" rx="2"  /><rect x="420" y="14" width="10" height="10" fill="#161b22" rx="2"  /><rect x="420" y="28" width="10" height="10" fill="#161b22" rx="2"  /><rect x="420" y="42" width="10" height="10" fill="#161b22" rx="2"  /><rect x="420" y="56" width="10" height="10" fill="#161b22" rx="2"  /><rect x="420" y="70" width="10" height="10" fill="#161b22" rx="2"  /><rect x="420" y="84" width="10" height="10" fill="#161b22" rx="2"  /><rect x="434" y="0" width="10" height="10" fill="#161b22" rx="2"  /><rect x="434" y="14" width="10" height="10" fill="#161b22" rx="2"  /><rect x="434" y="28" width="10" height="10" fill="#161b22" rx="2"  /><rect x="434" y="42" width="10" height="10" fill="#161b22" rx="2"  /><rect x="434" y="56" width="10" height="10" fill="#161b22" rx="2"  /><rect x="434" y="70" width="10" height="10" fill="#161b22" rx="2"  /><rect x="434" y="84" width="10" height="10" fill="#161b22" rx="2"  /><rect x="448" y="0" width="10" height="10" fill="#161b22" rx="2"  /><rect x="448" y="14" width="10" height="10" fill="#161b22" rx="2"  /><rect x="448" y="28" width="10" height="10" fill="#161b22" rx="2"  /><rect x="448" y="42" width="10" height="10" fill="#161b22" rx="2"  /><rect x="448" y="56" width="10" height="10" fill="#161b22" rx="2"  /><rect x="448" y="70" width="10" height="10" fill="#161b22" rx="2"  /><rect x="448" y="84" width="10" height="10" fill="#161b22" rx="2"  /><rect x="462" y="0" width="10" height="10" fill="#161b22" rx="2"  /><rect x="462" y="14" width="10" height="10" fill="#161b22" rx="2"  /><rect x="462" y="28" width="10" height="10" fill="#161b22" rx="2"  /><rect x="462" y="42" width="10" height="10" fill="#161b22" rx="2"  /><rect x="462" y="56" width="10" height="10" fill="#161b22" rx="2"  /><rect x="462" y="70" width="10" height="10" fill="#161b22" rx="2"  /><rect x="462" y="84" width="10" height="10" fill="#161b22" rx="2"  /><rect x="476" y="0" width="10" height="10" fill="#161b22" rx="2"  /><rect x="476" y="14" width="10" height="10" fill="#161b22" rx="2"  /><rect x="476" y="28" width="10" height="10" fill="#161b22" rx="2"  /><rect x="476" y="42" width="10" height="10" fill="#161b22" rx="2"  /><rect x="476" y="56" width="10" height="10" fill="#161b22" rx="2"  /><rect x="476" y="70" width="10" height="10" fill="#161b22" rx="2"  /><rect x="476" y="84" width="10" height="10" fill="#161b22" rx="2"  /><rect x="490" y="0" width="10" height="10" fill="#161b22" rx="2"  /><rect x="490" y="14" width="10" height="10" fill="#161b22" rx="2"  /><rect x="490" y="28" width="10" height="10" fill="#161b22" rx="2"  /><rect x="490" y="42" width="10" height="10" fill="#161b22" rx="2"  /><rect x="490" y="56" width="10" height="10" fill="#161b22" rx="2"  /><rect x="490" y="70" width="10" height="10" fill="#161b22" rx="2"  /><rect x="490" y="84" width="10" height="10" fill="#161b22" rx="2"  /><rect x="504" y="0" width="10" height="10" fill="#161b22" rx="2"  /><rect x="504" y="14" width="10" height="10" fill="#161b22" rx="2"  /><rect x="504" y="28" width="10" height="10" fill="#161b22" rx="2"  /><rect x="504" y="42" width="10" height="10" fill="#161b22" rx="2"  /><rect x="504" y="56" width="10" height="10" fill="#161b22" rx="2"  /><rect x="504" y="70" width="10" height="10" fill="#161b22" rx="2"  /><rect x="504" y="84" width="10" height="10" fill="#161b22" rx="2"  /><rect x="518" y="0" width="10" height="10" fill="#161b22" rx="2"  /><rect x="518" y="14" width="10" height="10" fill="#161b22" rx="2"  /><rect x="518" y="28" width="10" height="10" fill="#161b22" rx="2"  /><rect x="518" y="42" width="10" height="10" fill="#161b22" rx="2"  /><rect x="518" y="56" width="10" height="10" fill="#161b22" rx="2"  /><rect x="518" y="70" width="10" height="10" fill="#161b22" rx="2"  /><rect x="518" y="84" width="10" height="10" fill="#161b22" rx="2"  /><rect x="532" y="0" width="10" height="10" fill="#161b22" rx="2"  /><rect x="532" y="14" width="10" height="10" fill="#161b22" rx="2"  /><rect x="532" y="28" width="10" height="10" fill="#161b22" rx="2"  /><rect x="532" y="42" width="10" height="10" fill="#161b22" rx="2"  /><rect x="532" y="56" width="10" height="10" fill="#161b22" rx="2"  /><rect x="532" y="70" width="10" height="10" fill="#161b22" rx="2"  /><rect x="532" y="84" width="10" height="10" fill="#161b22" rx="2"  /><rect x="546" y="0" width="10" height="10" fill="#161b22" rx="2"  /><rect x="546" y="14" width="10" height="10" fill="#161b22" rx="2"  /><rect x="546" y="28" width="10" height="10" fill="#161b22" rx="2"  /><rect x="546" y="42" width="10" height="10" fill="#161b22" rx="2"  /><rect x="546" y="56" width="10" height="10" fill="#161b22" rx="2"  /><rect x="546" y="70" width="10" height="10" fill="#161b22" rx="2"  /><rect x="546" y="84" width="10" height="10" fill="#161b22" rx="2"  /><rect x="560" y="0" width="10" height="10" fill="#161b22" rx="2"  /><rect x="560" y="14" width="10" height="10" fill="#161b22" rx="2"  /><rect x="560" y="28" width="10" height="10" fill="#161b22" rx="2"  /><rect x="560" y="42" width="10" height="10" fill="#161b22" rx="2"  /><rect x="560" y="56" width="10" height="10" fill="#161b22" rx="2"  /><rect x="560" y="70" width="10" height="10" fill="#161b22" rx="2"  /><rect x="560" y="84" width="10" height="10" fill="#161b22" rx="2"  /><rect x="574" y="0" width="10" height="10" fill="#161b22" rx="2"  /><rect x="574" y="14" width="10" height="10" fill="#161b22" rx="2"  /><rect x="574" y="28" width="10" height="10" fill="#161b22" rx="2"  /><rect x="574" y="42" width="10" height="10" fill="#161b22" rx="2"  /><rect x="574" y="56" width="10" height="10" fill="#161b22" rx="2"  /><rect x="574" y="70" width="10" height="10" fill="#161b22" rx="2"  /><rect x="574" y="84" width="10" height="10" fill="#161b22" rx="2"  /><rect x="588" y="0" width="10" height="10" fill="#161b22" rx="2"  /><rect x="588" y="14" width="10" height="10" fill="#161b22" rx="2"  /><rect x="588" y="28" width="10" height="10" fill="#161b22" rx="2"  /><rect x="588" y="42" width="10" height="10" fill="#161b22" rx="2"  /><rect x="588" y="56" width="10" height="10" fill="#161b22" rx="2"  /><rect x="588" y="70" width="10" height="10" fill="#161b22" rx="2"  /><rect x="588" y="84" width="10" height="10" fill="#161b22" rx="2"  /><rect x="602" y="0" width="10" height="10" fill="#161b22" rx="2"  /><rect x="602" y="14" width="10" height="10" fill="#161b22" rx="2"  /><rect x="602" y="28" width="10" height="10" fill="#161b22" rx="2"  /><rect x="602" y="42" width="10" height="10" fill="#161b22" rx="2"  /><rect x="602" y="56" width="10" height="10" fill="#161b22" rx="2"  /><rect x="602" y="70" width="10" height="10" fill="#161b22" rx="2"  /><rect x="602" y="84" width="10" height="10" fill="#161b22" rx="2"  /><rect x="616" y="0" width="10" height="10" fill="#161b22" rx="2"  /><rect x="616" y="14" width="10" height="10" fill="#161b22" rx="2"  /><rect x="616" y="28" width="10" height="10" fill="#161b22" rx="2"  /><rect x="616" y="42" width="10" height="10" fill="#161b22" rx="2"  /><rect x="616" y="56" width="10" height="10" fill="#161b22" rx="2"  /><rect x="616" y="70" width="10" height="10" fill="#161b22" rx="2"  /><rect x="616" y="84" width="10" height="10" fill="#39d353" rx="2" style="animation: eat 0.1s forwards; animation-delay: 15.96s;" /><rect x="630" y="0" width="10" height="10" fill="#161b22" rx="2"  /><rect x="630" y="14" width="10" height="10" fill="#161b22" rx="2"  /><rect x="630" y="28" width="10" height="10" fill="#161b22" rx="2"  /><rect x="630" y="42" width="10" height="10" fill="#161b22" rx="2"  /><rect x="630" y="56" width="10" height="10" fill="#161b22" rx="2"  /><rect x="630" y="70" width="10" height="10" fill="#161b22" rx="2"  /><rect x="630" y="84" width="10" height="10" fill="#161b22" rx="2"  /><rect x="644" y="0" width="10" height="10" fill="#161b22" rx="2"  /><rect x="644" y="14" width="10" height="10" fill="#161b22" rx="2"  /><rect x="644" y="28" width="10" height="10" fill="#161b22" rx="2"  /><rect x="644" y="42" width="10" height="10" fill="#161b22" rx="2"  /><rect x="644" y="56" width="10" height="10" fill="#161b22" rx="2"  /><rect x="644" y="70" width="10" height="10" fill="#161b22" rx="2"  /><rect x="644" y="84" width="10" height="10" fill="#161b22" rx="2"  /><rect x="658" y="0" width="10" height="10" fill="#161b22" rx="2"  /><rect x="658" y="14" width="10" height="10" fill="#161b22" rx="2"  /><rect x="658" y="28" width="10" height="10" fill="#0e4429" rx="2" style="animation: eat 0.1s forwards; animation-delay: 5.413333333333333s;" /><rect x="658" y="42" width="10" height="10" fill="#161b22" rx="2"  /><rect x="658" y="56" width="10" height="10" fill="#161b22" rx="2"  /><rect x="658" y="70" width="10" height="10" fill="#161b22" rx="2"  /><rect x="658" y="84" width="10" height="10" fill="#161b22" rx="2"  /><rect x="672" y="0" width="10" height="10" fill="#161b22" rx="2"  /><rect x="672" y="14" width="10" height="10" fill="#161b22" rx="2"  /><rect x="672" y="28" width="10" height="10" fill="#161b22" rx="2"  /><rect x="672" y="42" width="10" height="10" fill="#161b22" rx="2"  /><rect x="672" y="56" width="10" height="10" fill="#161b22" rx="2"  /><rect x="672" y="70" width="10" height="10" fill="#161b22" rx="2"  /><rect x="672" y="84" width="10" height="10" fill="#161b22" rx="2"  /><rect x="686" y="0" width="10" height="10" fill="#161b22" rx="2"  /><rect x="686" y="14" width="10" height="10" fill="#161b22" rx="2"  /><rect x="686" y="28" width="10" height="10" fill="#161b22" rx="2"  /><rect x="686" y="42" width="10" height="10" fill="#161b22" rx="2"  /><rect x="686" y="56" width="10" height="10" fill="#161b22" rx="2"  /><rect x="686" y="70" width="10" height="10" fill="#161b22" rx="2"  /><rect x="686" y="84" width="10" height="10" fill="#161b22" rx="2"  /><rect x="700" y="0" width="10" height="10" fill="#161b22" rx="2"  /><rect x="700" y="14" width="10" height="10" fill="#161b22" rx="2"  /><rect x="700" y="28" width="10" height="10" fill="#161b22" rx="2"  /><rect x="700" y="42" width="10" height="10" fill="#161b22" rx="2"  /><rect x="700" y="56" width="10" height="10" fill="#161b22" rx="2"  /><rect x="700" y="70" width="10" height="10" fill="#161b22" rx="2"  /><rect x="700" y="84" width="10" height="10" fill="#161b22" rx="2"  /><rect x="714" y="0" width="10" height="10" fill="#161b22" rx="2"  /><rect x="714" y="14" width="10" height="10" fill="#161b22" rx="2"  /><rect x="714" y="28" width="10" height="10" fill="#161b22" rx="2"  /><rect x="714" y="42" width="10" height="10" fill="#161b22" rx="2"  /><rect x="714" y="56" width="10" height="10" fill="#161b22" rx="2"  /><rect x="714" y="70" width="10" height="10" fill="#161b22" rx="2"  /><rect x="714" y="84" width="10" height="10" fill="#161b22" rx="2"  /><rect x="728" y="0" width="10" height="10" fill="#161b22" rx="2"  /><rect x="728" y="14" width="10" height="10" fill="#161b22" rx="2"  /><rect x="728" y="28" width="10" height="10" fill="#161b22" rx="2"  /><rect x="728" y="42" width="10" height="10" fill="#0e4429" rx="2" style="animation: eat 0.1s forwards; animation-delay: 5.973333333333334s;" /><rect x="728" y="56" width="10" height="10" fill="#006d32" rx="2" style="animation: eat 0.1s forwards; animation-delay: 6.066666666666667s;" /><rect x="728" y="70" width="10" height="10" fill="#26a641" rx="2" style="animation: eat 0.1s forwards; animation-delay: 6.16s;" /><rect x="728" y="84" width="10" height="10" fill="#39d353" rx="2" style="animation: eat 0.1s forwards; animation-delay: 16.706666666666667s;" /></g>
<g>
    <animateMotion dur="16.706666666666667s" repeatCount="1" fill="freeze" path="M 0 42 L 140 42 L 140 14 L 168 14 L 168 0 L 238 0 L 238 70 L 658 70 L 658 28 L 728 28 L 728 42 L 728 56 L 728 70 L 56 70 L 56 56 L 28 56 L 28 70 L 42 70 L 42 0 L 210 0 L 616 0 L 616 84 L 728 84" rotate="auto">
    </animateMotion>
    
    <g transform="rotate(0)"> <!-- Adjust initial rotation if needed -->
        <circle cx="0" cy="0" r="4" fill="#FFD700" />
        <path d="M0,0 L5,-3 L5,3 Z" fill="#0d1117">
            <animateTransform attributeName="transform" type="rotate" from="0 0 0" to="30 0 0" dur="0.2s" repeatCount="indefinite" values="0 0 0; 30 0 0; 0 0 0" keyTimes="0; 0.5; 1" />
        </path>
    </g>
</g>
</svg>